<?xml version="1.0" ?><svg xmlns="http://www.w3.org/2000/svg" xmlns:xlink="http://www.w3.org/1999/xlink" version="1.1" viewBox="0 0 94 94" style="enable-background:new 0 0 94 94;" xml:space="preserve"><style type="text/css">
	.st0{display:none;}
	.st1{display:inline;fill:#FEA900;}
	.st2{display:inline;}
	.st3{display:inline;fill:#F9CD6C;}
	.st4{display:inline;fill:none;stroke:#000000;stroke-width:0.25;stroke-miterlimit:10;}
	.st5{stroke:#000000;stroke-linecap:round;stroke-linejoin:round;stroke-miterlimit:10;}
	.st6{opacity:0.2;stroke:#000000;stroke-linecap:round;stroke-linejoin:round;stroke-miterlimit:10;}
	.st7{fill:#F12A00;stroke:#000000;stroke-linecap:round;stroke-linejoin:round;stroke-miterlimit:10;}
	.st8{fill:#FBECCF;stroke:#000000;stroke-linecap:round;stroke-linejoin:round;stroke-miterlimit:10;}
	.st9{opacity:0.2;fill:#F12A00;}
	.st10{fill:#F7C86C;stroke:#000000;stroke-linecap:round;stroke-linejoin:round;stroke-miterlimit:10;}
	.st11{fill:none;stroke:#000000;stroke-linecap:round;stroke-linejoin:round;stroke-miterlimit:10;}
	.st12{display:inline;stroke:#000000;stroke-linecap:round;stroke-linejoin:round;stroke-miterlimit:10;}
	.st13{fill:#FAAC01;stroke:#000000;stroke-linecap:round;stroke-linejoin:round;stroke-miterlimit:10;}
	.st14{fill:#FAAC01;}
	.st15{display:inline;fill:#FAEBCE;stroke:#000000;stroke-width:0.25;stroke-miterlimit:10;}
	.st16{display:inline;fill:none;stroke:#000000;stroke-width:1.0164;stroke-miterlimit:10;}
	.st17{display:inline;fill:#FAEBCE;stroke:#000000;stroke-width:1.0164;stroke-miterlimit:10;}
	.st18{fill:#FEA900;}
	.st19{fill:#F9CD6C;}
	.st20{fill:none;stroke:#000000;stroke-width:1.0164;stroke-miterlimit:10;}
	.st21{fill:#FAEBCE;stroke:#000000;stroke-width:1.0164;stroke-miterlimit:10;}
	.st22{display:inline;fill:#FAEBCE;}
	.st23{fill:#008FF5;stroke:#000000;stroke-linecap:round;stroke-linejoin:round;stroke-miterlimit:10;}
	.st24{fill:#D0E6FB;stroke:#000000;stroke-linecap:round;stroke-linejoin:round;stroke-miterlimit:10;}
	.st25{fill:#FFFFFF;stroke:#000000;stroke-linecap:round;stroke-linejoin:round;stroke-miterlimit:10;}
	.st26{fill:#75D95D;stroke:#000000;stroke-linecap:round;stroke-linejoin:round;stroke-miterlimit:10;}
	.st27{fill:#CAF3BB;}
	.st28{fill:#FFFFFF;}
	.st29{fill:#CAF3BB;stroke:#000000;stroke-linecap:round;stroke-linejoin:round;stroke-miterlimit:10;}
	.st30{display:inline;fill:#D0E6FB;stroke:#000000;stroke-linecap:round;stroke-linejoin:round;stroke-miterlimit:10;}
	.st31{stroke:#FFFFFF;stroke-linecap:round;stroke-linejoin:round;stroke-miterlimit:10;}
	.st32{fill:#B4B2FB;stroke:#000000;stroke-linecap:round;stroke-linejoin:round;stroke-miterlimit:10;}
	.st33{fill:#018BEE;}
	.st34{display:inline;fill:none;stroke:#000000;stroke-linecap:round;stroke-linejoin:round;stroke-miterlimit:10;}
	.st35{fill:#75D95D;}
	.st36{fill:#4949F7;stroke:#000000;stroke-linecap:round;stroke-linejoin:round;stroke-miterlimit:10;}
	.st37{fill:#D0E6FB;}
	.st38{fill:#6FBBF7;stroke:#000000;stroke-linecap:round;stroke-linejoin:round;stroke-miterlimit:10;}
	.st39{fill:#018BEE;stroke:#000000;stroke-linecap:round;stroke-linejoin:round;stroke-miterlimit:10;}
	.st40{fill:#B4B2FB;}
	.st41{fill:#E8E9FE;}
	.st42{fill:#B4B2FB;stroke:#000F24;stroke-miterlimit:10;}
	.st43{stroke:#000000;stroke-miterlimit:10;}
	.st44{fill:#E8E9FE;stroke:#000000;stroke-linecap:round;stroke-linejoin:round;stroke-miterlimit:10;}
	.st45{opacity:0.3;fill:#018BEE;}
	.st46{fill:#6FBBF7;}
	.st47{fill:#FAAC01;stroke:#FFFFFF;stroke-linecap:round;stroke-linejoin:round;stroke-miterlimit:10;}
	.st48{fill:#006A2F;}
	.st49{opacity:0.1;}
	.st50{fill:#FCD4CA;stroke:#000000;stroke-linecap:round;stroke-linejoin:round;stroke-miterlimit:10;}
	.st51{fill:#006A2F;stroke:#000000;stroke-linecap:round;stroke-linejoin:round;stroke-miterlimit:10;}
	.st52{fill:#4949F7;}
	.st53{fill:#F12A00;}
	.st54{fill:#D0E6FB;stroke:#018BEE;stroke-linecap:round;stroke-linejoin:round;stroke-miterlimit:10;}
	.st55{fill:#9CD7FF;}
	.st56{fill:#F7C86C;}
	.st57{opacity:0.3;stroke:#000000;stroke-linecap:round;stroke-linejoin:round;stroke-miterlimit:10;}
	.st58{opacity:0.1;stroke:#000000;stroke-linecap:round;stroke-linejoin:round;stroke-miterlimit:10;}
	.st59{opacity:0.3;fill:#006A2F;}
	.st60{stroke:#000000;stroke-width:1.0825;stroke-linecap:round;stroke-linejoin:round;stroke-miterlimit:10;}
	.st61{fill:#D0E6FB;stroke:#000000;stroke-width:1.0825;stroke-linecap:round;stroke-linejoin:round;stroke-miterlimit:10;}
	.st62{fill:#6FBBF7;stroke:#000000;stroke-width:1.0825;stroke-linecap:round;stroke-linejoin:round;stroke-miterlimit:10;}
	.st63{fill:none;stroke:#000000;stroke-width:1.0825;stroke-linecap:round;stroke-linejoin:round;stroke-miterlimit:10;}
	.st64{fill:#CAF3BB;stroke:#000000;stroke-width:0.7876;stroke-linecap:round;stroke-linejoin:round;stroke-miterlimit:10;}
	.st65{fill:#6FBBF7;stroke:#FFFFFF;stroke-linecap:round;stroke-linejoin:round;stroke-miterlimit:10;}
	.st66{opacity:0.2;}
	.st67{stroke:#E8E9FE;stroke-linecap:round;stroke-linejoin:round;stroke-miterlimit:10;}
	.st68{fill:#FCD4CA;}
	.st69{fill:#FBECCF;}
	.st70{opacity:0.1;fill:#F12A00;}
	.st71{opacity:0.5;stroke:#000000;stroke-linecap:round;stroke-linejoin:round;stroke-miterlimit:10;}
	.st72{fill:#6FBBF7;stroke:#E8E9FE;stroke-linecap:round;stroke-linejoin:round;stroke-miterlimit:10;}
	.st73{opacity:0.5;fill:#D0E6FB;}
	.st74{fill:#70BAF7;}
	.st75{fill:none;stroke:#FFFFFF;stroke-linecap:round;stroke-linejoin:round;stroke-miterlimit:10;}
	.st76{fill:#70BAF7;stroke:#70BAF7;stroke-linecap:round;stroke-linejoin:round;stroke-miterlimit:10;}
	.st77{fill:#018BEE;stroke:#018BEE;stroke-linecap:round;stroke-linejoin:round;stroke-miterlimit:10;}
	.st78{fill:#70BAF7;stroke:#000000;stroke-linecap:round;stroke-linejoin:round;stroke-miterlimit:10;}
	.st79{fill:#F9CD6C;stroke:#000000;stroke-linecap:round;stroke-linejoin:round;stroke-miterlimit:10;}
	.st80{fill:none;}
	.st81{fill:#006A2F;stroke:#006A2F;stroke-miterlimit:10;}
	.st82{fill:#B4DFFC;}
	.st83{fill:#6FBBF7;stroke:#018BEE;stroke-linecap:round;stroke-linejoin:round;stroke-miterlimit:10;}
	.st84{fill:none;stroke:#FBECCF;stroke-linecap:round;stroke-linejoin:round;stroke-miterlimit:10;}
	.st85{fill:none;stroke:#018BEE;stroke-linecap:round;stroke-linejoin:round;stroke-miterlimit:10;}
	.st86{fill:#010101;stroke:#FFFFFF;stroke-linecap:round;stroke-linejoin:round;stroke-miterlimit:10;}
	.st87{fill:#010101;stroke:#000000;stroke-linecap:round;stroke-linejoin:round;stroke-miterlimit:10;}
	.st88{fill:#75D95D;stroke:#FFFFFF;stroke-linecap:round;stroke-linejoin:round;stroke-miterlimit:10;}
	.st89{fill:#94F279;stroke:#000000;stroke-linecap:round;stroke-linejoin:round;stroke-miterlimit:10;}
	.st90{fill:#8C8CF9;}
	.st91{fill:#008FF5;}
	.st92{fill:#8CD8F9;}
	.st93{fill:#FFC043;}
	.st94{fill:#94F279;}
	.st95{fill:#FF3D1D;}
	.st96{fill:#31B1FF;}
	.st97{fill:#FFCF7B;}
	.st98{fill:#B2FF99;}
	.st99{fill:#D7D7FF;}
	.st100{fill:#FF7C6E;}
	.st101{fill:#5CC9FF;}
	.st102{fill:#F12A00;stroke:#FFFFFF;stroke-linecap:round;stroke-linejoin:round;stroke-miterlimit:10;}
	.st103{fill:#F7C86C;stroke:#000000;stroke-width:1.0164;stroke-miterlimit:10;}
</style><g id="Refrences" class="st0"/><g id="Tittle"/><g id="Icons"><g><path class="st28" d="M52.67,4.76c-3.31-3.68-6.65-3.68-9.96,0C24.3,29.16,26.78,51.74,39,64c5.79,2.06,11.59,2.06,17.38,0    C68.6,51.74,71.09,29.16,52.67,4.76z"/><path class="st37" d="M56.39,64c-5.8,2.06-11.59,2.06-17.38,0c-3.59-3.61-6.34-8.1-7.97-13.27c2.71,0.91,5.62,1.4,8.64,1.4    c11.99,0,22.19-7.69,25.93-18.4C67.32,46.2,63.51,56.85,56.39,64z"/><path class="st11" d="M52.67,4.76c-3.31-3.68-6.65-3.68-9.96,0C24.3,29.16,26.78,51.74,39,64c5.79,2.06,11.59,2.06,17.38,0    C68.6,51.74,71.09,29.16,52.67,4.76z"/><path class="st7" d="M58.34,13.32c-1.61-2.82-3.49-5.68-5.67-8.57c-3.31-3.68-6.65-3.68-9.96,0c-2.18,2.89-4.05,5.75-5.67,8.57    C37.04,17.17,58.34,17.17,58.34,13.32z"/><path class="st7" d="M29.58,43.54c0.56,5.59,2.32,10.61,5,14.88c-4.23,1.97-7.93,4.89-10.84,8.46c-1.13,1.38-3.36,0.73-3.47-1.03    c-0.04-0.56-0.05-1.11-0.05-1.68C20.22,55.95,23.85,48.57,29.58,43.54z"/><path class="st7" d="M75.12,65.89c-0.11,1.75-2.35,2.39-3.47,1.02c-2.92-3.58-6.62-6.49-10.84-8.48c2.68-4.28,4.43-9.3,5-14.88    c4.84,4.28,8.2,10.22,9.1,16.91C75.16,62.3,75.23,64.11,75.12,65.89z"/><path class="st5" d="M34.58,58.43c-4.22,1.97-7.92,4.88-10.84,8.46c-1.12,1.39-3.35,0.74-3.46-1.03    c-0.04-0.56-0.05-1.11-0.05-1.68c0-0.6,0.02-1.19,0.06-1.78c0.13,1.74,2.34,2.37,3.45,0.99c2.56-3.14,5.72-5.77,9.31-7.69    C33.52,56.64,34.03,57.55,34.58,58.43z"/><path class="st5" d="M75.12,65.89c-0.11,1.75-2.35,2.39-3.47,1.01c-2.91-3.57-6.61-6.49-10.84-8.47c0.55-0.88,1.06-1.79,1.53-2.73    c3.6,1.94,6.76,4.57,9.31,7.7c1.11,1.37,3.32,0.75,3.46-0.97C75.19,63.6,75.19,64.75,75.12,65.89z"/><circle class="st38" cx="47.69" cy="32.33" r="6.84"/><path class="st5" d="M55.4,70.22c0,2.83-15.42,2.83-15.42,0l1.02-5.6c4.46,1.23,8.92,1.23,13.39,0L55.4,70.22z"/><path class="st79" d="M53.06,81.38c0,2.97-2.4,10.62-5.37,10.62s-5.37-7.65-5.37-10.62c0-2.97,2.4-5.37,5.37-5.37    S53.06,78.42,53.06,81.38z"/><g><path class="st24" d="M27.6,22.26c0,3.43-2.77,6.21-6.21,6.21c-1.95,0-3.7-0.9-4.82-2.31c-1.37,1.42-3.3,2.31-5.43,2.31     c-4.17,0-7.56-3.38-7.56-7.55s3.39-7.55,7.56-7.55c0.68,0,1.33,0.08,1.95,0.25c0.35-2.56,2.54-4.52,5.18-4.52     c2.9,0,5.24,2.35,5.24,5.24c0,0.69-0.13,1.35-0.39,1.95C25.71,17.05,27.6,19.43,27.6,22.26z"/><path class="st75" d="M9.79,15.42c-2.33,0.57-4.08,2.58-4.28,5.03"/><path class="st11" d="M21.71,18.3c1.11-0.96,1.81-2.37,1.81-3.95c0-2.9-2.35-5.24-5.24-5.24c-2.9,0-5.24,2.35-5.24,5.24     c0,0.72,0.15,1.41,0.41,2.04"/><path class="st11" d="M15.38,23.77c0.68,2.69,3.11,4.69,6.01,4.69c2.06,0,3.87-1.02,5-2.57"/></g><circle class="st11" cx="9.23" cy="7.71" r="2.05"/><circle class="st11" cx="29.75" cy="12.37" r="1.8"/><circle class="st11" cx="15.68" cy="31.35" r="1.41"/><g><path class="st24" d="M67.94,12.89c0-3.21,2.6-5.81,5.81-5.81c1.83,0,3.46,0.84,4.51,2.16c1.28-1.33,3.09-2.16,5.08-2.16     c3.9,0,7.07,3.16,7.07,7.06s-3.17,7.06-7.07,7.06c-0.64,0-1.24-0.08-1.83-0.24c-0.33,2.39-2.37,4.23-4.85,4.23     c-2.71,0-4.91-2.2-4.91-4.91c0-0.64,0.12-1.26,0.36-1.83C69.71,17.76,67.94,15.53,67.94,12.89z"/><path class="st75" d="M84.6,19.28c2.18-0.53,3.82-2.42,4.01-4.71"/><path class="st11" d="M73.45,16.59c-1.03,0.9-1.69,2.22-1.69,3.69c0,2.71,2.2,4.91,4.91,4.91c2.71,0,4.91-2.2,4.91-4.91     c0-0.68-0.14-1.32-0.38-1.9"/><path class="st11" d="M79.37,11.47c-0.63-2.52-2.91-4.39-5.63-4.39c-1.93,0-3.62,0.95-4.68,2.4"/></g><circle class="st11" cx="85.13" cy="26.5" r="1.91"/><circle class="st11" cx="79.09" cy="4.38" r="1.32"/></g></g><g id="Layer_4"/></svg>